#N canvas 104 116 1146 461 10;
#X obj 253 102 hradio 15 0 0 43 empty empty keyboard 0 -8 0 10 -262144
-1 -1 11;
#X floatatom 293 133 5 0 0 0 offset - -, f 5;
#X floatatom 386 133 6 0 0 0 duration - -, f 6;
#X obj 253 15 loadbang;
#X msg 295 41 200;
#X obj 253 200 makenote;
#X floatatom 485 133 5 0 0 0 velocity - -, f 5;
#X msg 337 41 64;
#X obj 261 161 +;
#X msg 253 41 48;
#X obj 253 225 noteout;
#X floatatom 578 133 5 1 16 0 channel - -, f 5;
#X msg 379 41 1;
#X connect 0 0 8 0;
#X connect 1 0 8 1;
#X connect 2 0 5 2;
#X connect 3 0 4 0;
#X connect 3 0 9 0;
#X connect 3 0 7 0;
#X connect 3 0 12 0;
#X connect 4 0 2 0;
#X connect 5 0 10 0;
#X connect 5 1 10 1;
#X connect 6 0 5 1;
#X connect 7 0 6 0;
#X connect 8 0 5 0;
#X connect 9 0 1 0;
#X connect 11 0 10 2;
#X connect 12 0 11 0;
#X coords 0 -1 1 1 662 83 1 246 74;
